<?xml version="1.0" encoding="UTF-8"?>
<!-- Generated by Pixelmator Pro 3.6.8 -->
<svg width="200" height="225" viewBox="0 0 200 225" xmlns="http://www.w3.org/2000/svg">
    <path id="Path" fill="#ffffff" stroke="none" d="M 192.929993 127 C 192.963593 176.534714 154.114456 217.377151 104.639999 219.820007 C 103.100006 219.889999 101.559998 219.929993 100 219.929993 C 98.440002 219.929993 96.899994 219.929993 95.360001 219.820007 C 45.49382 217.339096 6.499596 175.898804 7.053391 125.97403 C 7.607185 76.049255 47.511063 35.484146 97.419998 34.110001 L 100 34.110001 C 100 34.110001 101.720001 34.110001 102.580002 34.110001 C 152.88028 35.50174 192.933014 76.680481 192.929993 127 Z"/>
    <path id="path1" fill="#093f68" stroke="none" d="M 100 220.929993 C 98.5 220.929993 97 220.929993 95.309998 220.820007 C 44.898651 218.323669 5.47216 176.434204 6.03141 125.964188 C 6.590668 75.494171 46.935715 34.488647 97.389999 33.110001 C 99.119995 33.050003 100.869995 33.050003 102.619995 33.110001 C 153.073639 34.492096 193.415649 75.499512 193.972198 125.969009 C 194.528778 176.438507 155.100891 218.325607 104.690002 220.820007 C 103 220.889999 101.5 220.929993 100 220.929993 Z M 100 35.070007 C 99.149994 35.070007 98.300003 35.070007 97.460007 35.070007 C 48.095703 36.436127 8.629898 76.558929 8.078873 125.939041 C 7.52784 175.319153 46.088486 216.312637 95.410004 218.779999 C 98.639999 218.929993 101.410004 218.929993 104.600006 218.779999 C 109.703842 218.540405 114.778442 217.871368 119.770004 216.779999 C 165.112671 206.78743 195.886505 164.552811 191.505096 118.329315 C 187.123688 72.105804 148.962616 36.405334 102.550003 35.110001 C 101.699997 35.080002 100.850006 35.070007 100 35.070007 Z"/>
    <path id="path2" fill="#68e1fd" stroke="none" d="M 100 6.880005 L 104.529999 90.76001 L 95.470001 90.76001 Z"/>
    <g id="Group">
        <path id="path3" fill="#093f68" stroke="none" d="M 104.529999 91.76001 L 95.470001 91.76001 C 95.194336 91.761703 94.930206 91.649536 94.740005 91.449997 C 94.549942 91.24823 94.452164 90.976624 94.470001 90.699997 L 99 6.820007 C 99 6.2677 99.447708 5.820007 100 5.820007 C 100.552292 5.820007 101 6.2677 101 6.820007 L 105.529999 90.699997 C 105.547836 90.976624 105.450058 91.24823 105.259995 91.449997 C 105.069794 91.649536 104.805664 91.761703 104.529999 91.76001 Z M 96.529999 89.76001 L 103.529999 89.76001 L 100 25.419998 Z"/>
        <path id="path4" fill="#093f68" stroke="none" d="M 104.529999 44 L 95.470001 44 C 94.917709 44 94.470001 43.552277 94.470001 43 C 94.470001 42.447723 94.917709 42 95.470001 42 L 104.529999 42 C 105.082291 42 105.529999 42.447723 105.529999 43 C 105.529999 43.552277 105.082291 44 104.529999 44 Z"/>
        <path id="path5" fill="#093f68" stroke="none" d="M 107.369995 84.470001 L 92.630005 84.470001 C 92.077713 84.470001 91.630005 84.022278 91.630005 83.470001 C 91.630005 82.917725 92.077713 82.470001 92.630005 82.470001 L 107.369995 82.470001 C 107.922287 82.470001 108.369995 82.917725 108.369995 83.470001 C 108.369995 84.022278 107.922287 84.470001 107.369995 84.470001 Z"/>
        <path id="path6" fill="#093f68" stroke="none" d="M 105.800003 73.389999 L 94.199997 73.389999 C 93.64772 73.389999 93.199997 72.942291 93.199997 72.389999 C 93.199997 71.837708 93.64772 71.389999 94.199997 71.389999 L 105.800003 71.389999 C 106.35228 71.389999 106.800003 71.837708 106.800003 72.389999 C 106.800003 72.942291 106.35228 73.389999 105.800003 73.389999 Z"/>
        <path id="path7" fill="#093f68" stroke="none" d="M 73.880005 104.73999 L 126.119995 104.73999 L 118.190002 99.570007 L 81.809998 99.570007 Z"/>
        <path id="path8" fill="#093f68" stroke="none" d="M 126.119995 105.740005 L 73.880005 105.740005 C 73.420822 105.75827 73.008301 105.461258 72.880005 105.020004 C 72.754715 104.597107 72.921295 104.142059 73.289993 103.899994 L 81.229996 98.730011 C 81.390961 98.626038 81.578384 98.570496 81.770004 98.570007 L 118.149994 98.570007 C 118.341614 98.570496 118.529053 98.626038 118.690002 98.730011 L 126.630005 103.899994 C 126.998703 104.142059 127.165283 104.597107 127.039993 105.020004 C 126.919983 105.4328 126.549545 105.722702 126.119995 105.740005 Z M 77.25 103.73999 L 122.75 103.73999 L 117.889999 100.570007 L 82.110001 100.570007 Z"/>
        <path id="path9" fill="#093f68" stroke="none" d="M 73.880005 123.740005 L 126.119995 123.740005 L 118.190002 128.910004 L 81.809998 128.910004 Z"/>
        <path id="path10" fill="#093f68" stroke="none" d="M 118.190002 129.910004 L 81.809998 129.910004 C 81.618393 129.9095 81.430954 129.853973 81.270004 129.75 L 73.330002 124.580002 C 72.961288 124.337936 72.794708 123.882904 72.919998 123.460007 C 73.048309 123.018738 73.460831 122.721725 73.919998 122.740005 L 126.160004 122.740005 C 126.619171 122.721725 127.031693 123.018738 127.160004 123.460007 C 127.285278 123.882904 127.118713 124.337936 126.75 124.580002 L 118.809998 129.75 C 118.62645 129.869843 118.408615 129.926056 118.190002 129.910004 Z M 82.110001 127.910004 L 117.889999 127.910004 L 122.75 124.740005 L 77.25 124.740005 Z"/>
    </g>
    <path id="path11" fill="#68e1fd" stroke="none" d="M 120 217.770004 C 114.948318 218.865036 109.813614 219.534042 104.649994 219.770004 C 103.110001 219.839996 101.570007 219.880005 100.009995 219.880005 C 98.449997 219.880005 96.910004 219.880005 95.369995 219.770004 C 90.206375 219.534042 85.071686 218.865036 80.020004 217.770004 C 90.259995 183.830002 88.949997 138.770004 88.949997 138.770004 L 111.070007 138.770004 C 111.070007 138.770004 109.75 183.830002 120 217.770004 Z"/>
    <path id="path12" fill="#093f68" stroke="none" d="M 100 220.929993 C 98.5 220.929993 97 220.929993 95.309998 220.820007 C 90.088181 220.56189 84.896927 219.869492 79.789993 218.75 C 79.52095 218.68837 79.289322 218.51828 79.149994 218.279999 C 79.00589 218.039185 78.969604 217.748886 79.050003 217.479996 C 89.130005 184.080002 87.949997 139.289993 87.940002 138.839996 C 87.930405 138.568756 88.031464 138.305252 88.220001 138.110001 C 88.4095 137.916656 88.669281 137.808426 88.940002 137.809998 L 111.059998 137.809998 C 111.330719 137.808426 111.5905 137.916656 111.779999 138.110001 C 111.968536 138.305252 112.069595 138.568756 112.059998 138.839996 C 112.059998 139.289993 110.869995 184.089996 120.949997 217.479996 C 121.030396 217.748886 120.99411 218.039185 120.850006 218.279999 C 120.710678 218.51828 120.47905 218.68837 120.210007 218.75 C 115.103073 219.869492 109.911819 220.56189 104.690002 220.820007 C 103 220.889999 101.5 220.929993 100 220.929993 Z M 81.279999 217 C 85.93634 217.96463 90.660522 218.566437 95.410004 218.800003 C 98.639999 218.949997 101.410004 218.949997 104.600006 218.800003 C 109.346115 218.565796 114.066925 217.963989 118.720001 217 C 109.720001 186.270004 109.929993 146.639999 110.039993 139.789993 L 90 139.789993 C 90.070007 146.660004 90.279999 186.289993 81.279999 217 Z"/>
    <path id="path13" fill="#68e1fd" stroke="none" d="M 104.639999 138.479996 L 104.639999 219.820007 C 103.100006 219.889999 101.559998 219.929993 100 219.929993 C 98.440002 219.929993 96.899994 219.929993 95.360001 219.820007 L 95.360001 138.479996 Z"/>
    <path id="path14" fill="#093f68" stroke="none" d="M 100 220.929993 C 98.5 220.929993 97 220.929993 95.309998 220.820007 C 94.777328 220.793335 94.359329 220.353333 94.360001 219.820007 L 94.360001 138.479996 C 94.360001 137.927719 94.807709 137.479996 95.360001 137.479996 L 104.639999 137.479996 C 105.192291 137.479996 105.639999 137.927719 105.639999 138.479996 L 105.639999 219.820007 C 105.640671 220.353333 105.222672 220.793335 104.690002 220.820007 C 103 220.889999 101.5 220.929993 100 220.929993 Z M 96.360001 218.860001 C 98.880005 218.949997 101.119995 218.949997 103.639999 218.860001 L 103.639999 139.479996 L 96.360001 139.479996 Z"/>
    <path id="path15" fill="#68e1fd" stroke="none" d="M 78.899994 128.910004 L 121.100006 128.910004 C 123.055084 128.910004 124.639999 130.494919 124.639999 132.449997 L 124.639999 134.940002 C 124.639999 136.895081 123.055084 138.479996 121.100006 138.479996 L 78.899994 138.479996 C 76.944916 138.479996 75.360001 136.895081 75.360001 134.940002 L 75.360001 132.449997 C 75.360001 130.494919 76.944916 128.910004 78.899994 128.910004 Z"/>
    <path id="path16" fill="#093f68" stroke="none" d="M 121.100006 139.479996 L 78.899994 139.479996 C 76.392624 139.479996 74.360001 137.447372 74.360001 134.940002 L 74.360001 132.449997 C 74.365494 129.944916 76.394913 127.915497 78.899994 127.910004 L 121.100006 127.910004 C 123.605087 127.915497 125.634506 129.944916 125.639999 132.449997 L 125.639999 134.940002 C 125.639999 137.447372 123.607376 139.479996 121.100006 139.479996 Z M 78.899994 129.910004 C 77.497192 129.910004 76.360001 131.047195 76.360001 132.449997 L 76.360001 134.940002 C 76.360001 136.342804 77.497192 137.479996 78.899994 137.479996 L 121.100006 137.479996 C 122.502808 137.479996 123.639999 136.342804 123.639999 134.940002 L 123.639999 132.449997 C 123.639999 131.047195 122.502808 129.910004 121.100006 129.910004 Z"/>
    <path id="path17" fill="#68e1fd" stroke="none" d="M 87.389999 90.589996 L 112.600006 90.589996 C 115.101852 90.589996 117.130005 92.618149 117.130005 95.119995 L 117.130005 99.570007 L 117.130005 99.570007 L 82.860001 99.570007 L 82.860001 99.570007 L 82.860001 95.119995 C 82.860001 92.618149 84.888153 90.589996 87.389999 90.589996 Z"/>
    <path id="path18" fill="#093f68" stroke="none" d="M 117.139999 100.570007 L 82.860001 100.570007 C 82.307709 100.570007 81.860001 100.122284 81.860001 99.570007 L 81.860001 95.119995 C 81.860001 92.06424 84.334244 89.58551 87.389999 89.580002 L 112.610001 89.580002 C 115.665756 89.58551 118.139999 92.06424 118.139999 95.119995 L 118.139999 99.570007 C 118.139999 100.122284 117.692291 100.570007 117.139999 100.570007 Z M 83.860001 98.570007 L 116.139999 98.570007 L 116.139999 95.119995 C 116.140015 93.168808 114.561188 91.58551 112.610001 91.580002 L 87.389999 91.580002 C 85.438812 91.58551 83.859985 93.168808 83.860001 95.119995 Z"/>
    <path id="path19" fill="#093f68" stroke="none" d="M 91.229996 129.169998 C 90.972534 129.168976 90.725372 129.06868 90.539993 128.889999 L 85.070007 123.729996 C 84.66684 123.348923 84.648926 122.713165 85.029999 122.309998 C 85.411072 121.90683 86.046829 121.888916 86.449997 122.270004 L 91.910004 127.440002 C 92.297729 127.830032 92.297729 128.459961 91.910004 128.850006 C 91.733566 129.041016 91.489655 129.155807 91.229996 129.169998 Z"/>
    <path id="path20" fill="#093f68" stroke="none" d="M 108.770004 129.169998 C 108.496323 129.166367 108.236099 129.050705 108.050003 128.850006 C 107.662277 128.459961 107.662277 127.830032 108.050003 127.440002 L 113.509995 122.270004 C 113.913162 121.888916 114.54892 121.90683 114.929993 122.309998 C 115.311081 122.713165 115.293167 123.348923 114.889999 123.729996 L 109.419998 128.889999 C 109.244705 129.059448 109.01355 129.159027 108.770004 129.169998 Z"/>
    <path id="path21" fill="#093f68" stroke="none" d="M 100 129.169998 C 99.447708 129.169998 99 128.72229 99 128.169998 L 99 123.860001 C 99 123.307709 99.447708 122.860001 100 122.860001 C 100.552292 122.860001 101 123.307709 101 123.860001 L 101 128.169998 C 101 128.72229 100.552292 129.169998 100 129.169998 Z"/>
    <path id="path22" fill="#68e1fd" stroke="none" d="M 74.839996 104.73999 L 125.169998 104.73999 C 126.810287 104.73999 128.139999 106.069717 128.139999 107.710007 L 128.139999 120.649994 C 128.139999 122.290283 126.810287 123.619995 125.169998 123.619995 L 74.839996 123.619995 C 73.199707 123.619995 71.869995 122.290283 71.869995 120.649994 L 71.869995 107.710007 C 71.869995 106.069717 73.199707 104.73999 74.839996 104.73999 Z"/>
    <path id="path23" fill="#093f68" stroke="none" d="M 125.169998 124.619995 L 74.830002 124.619995 C 72.620865 124.619995 70.830002 122.829132 70.830002 120.619995 L 70.830002 107.619995 C 70.830002 105.410858 72.620865 103.619995 74.830002 103.619995 L 125.169998 103.619995 C 127.379135 103.619995 129.169998 105.410858 129.169998 107.619995 L 129.169998 120.619995 C 129.169998 122.829132 127.379135 124.619995 125.169998 124.619995 Z M 74.830002 105.740005 C 73.725433 105.740005 72.830002 106.635437 72.830002 107.740005 L 72.830002 120.740005 C 72.830002 121.844574 73.725433 122.740005 74.830002 122.740005 L 125.169998 122.740005 C 126.274567 122.740005 127.169998 121.844574 127.169998 120.740005 L 127.169998 107.740005 C 127.169998 106.635437 126.274567 105.740005 125.169998 105.740005 Z"/>
    <path id="path24" fill="#093f68" stroke="none" d="M 130.570007 112.199997 L 69.190002 112.199997 C 68.637711 112.199997 68.190002 111.752289 68.190002 111.199997 C 68.190002 110.64772 68.637711 110.199997 69.190002 110.199997 L 130.570007 110.199997 C 131.122284 110.199997 131.570007 110.64772 131.570007 111.199997 C 131.570007 111.752289 131.122284 112.199997 130.570007 112.199997 Z"/>
    <path id="path25" fill="#093f68" stroke="none" d="M 130.570007 118.160004 L 69.190002 118.160004 C 68.637711 118.160004 68.190002 117.71228 68.190002 117.160004 C 68.190002 116.607712 68.637711 116.160004 69.190002 116.160004 L 130.570007 116.160004 C 131.122284 116.160004 131.570007 116.607712 131.570007 117.160004 C 131.570007 117.71228 131.122284 118.160004 130.570007 118.160004 Z"/>
    <path id="path26" fill="#dfeaef" stroke="none" d="M 69.289993 198.300003 L 63.380005 198.300003 C 62.827713 198.300003 62.380005 197.85228 62.380005 197.300003 L 62.380005 177.470001 L 45.070007 177.470001 C 44.517715 177.470001 44.070007 177.022278 44.070007 176.470001 L 44.070007 164.520004 L 30.869995 164.520004 L 30.869995 182.100006 C 30.869995 182.652283 30.422287 183.100006 29.869995 183.100006 C 29.317719 183.100006 28.869995 182.652283 28.869995 182.100006 L 28.869995 163.520004 C 28.869995 162.967712 29.317719 162.520004 29.869995 162.520004 L 45.070007 162.520004 C 45.622284 162.520004 46.070007 162.967712 46.070007 163.520004 L 46.070007 175.470001 L 63.380005 175.470001 C 63.932281 175.470001 64.380005 175.917709 64.380005 176.470001 L 64.380005 196.300003 L 68.289993 196.300003 L 68.289993 169.429993 C 68.289993 168.877716 68.737717 168.429993 69.289993 168.429993 L 85.759995 168.429993 C 86.312286 168.429993 86.759995 168.877716 86.759995 169.429993 C 86.759995 169.982285 86.312286 170.429993 85.759995 170.429993 L 70.289993 170.429993 L 70.289993 197.300003 C 70.289993 197.85228 69.842285 198.300003 69.289993 198.300003 Z"/>
    <path id="path27" fill="#dfeaef" stroke="none" d="M 145.309998 195.429993 L 136.309998 195.429993 C 135.757721 195.429993 135.309998 194.982285 135.309998 194.429993 L 135.309998 189.369995 L 124.639999 189.369995 C 124.087723 189.369995 123.639999 188.922287 123.639999 188.369995 L 123.639999 181 L 117.139999 181 C 116.587723 181 116.139999 180.552292 116.139999 180 C 116.139999 179.447708 116.587723 179 117.139999 179 L 124.639999 179 C 125.192291 179 125.639999 179.447708 125.639999 180 L 125.639999 187.360001 L 136.300003 187.360001 C 136.85228 187.360001 137.300003 187.807709 137.300003 188.360001 L 137.300003 193.419998 L 144.300003 193.419998 L 144.300003 173.320007 C 144.300003 172.767715 144.747711 172.320007 145.300003 172.320007 L 167.299988 172.320007 C 167.852295 172.320007 168.299988 172.767715 168.299988 173.320007 L 168.299988 183.880005 C 168.299988 184.432281 167.852295 184.880005 167.299988 184.880005 C 166.747711 184.880005 166.299988 184.432281 166.299988 183.880005 L 166.299988 174.320007 L 146.300003 174.320007 L 146.300003 194.429993 C 146.300034 194.978409 145.858368 195.424515 145.309998 195.429993 Z"/>
    <path id="path28" fill="#dfeaef" stroke="none" d="M 55.490005 130.880005 L 24.199997 130.880005 C 20.519997 130.880005 17.529999 128.460007 17.529999 125.479996 C 17.529999 123.199997 19.309998 121.169998 21.93 120.410004 C 23.261108 118.056137 25.717712 116.560974 28.419998 116.460007 C 29.149994 113.559998 32.350006 111.399994 36.130005 111.399994 C 38.934647 111.304031 41.596588 112.636887 43.199997 114.940002 C 44.818527 114.185532 46.58429 113.799576 48.369995 113.809998 C 53.369995 113.809998 57.580002 116.740005 58.369995 120.600006 C 60.528641 121.279846 62.044113 123.220917 62.179993 125.479996 C 62.160004 128.460007 59.169998 130.880005 55.490005 130.880005 Z M 29.259995 118.419998 C 26.620003 118.419998 24.260002 119.729996 23.589996 121.610001 C 23.46978 121.924774 23.199127 122.157837 22.870003 122.229996 C 20.870003 122.660004 19.529999 124 19.529999 125.479996 C 19.529999 127.360001 21.620003 128.880005 24.199997 128.880005 L 55.490005 128.880005 C 58.070007 128.880005 60.160004 127.360001 60.160004 125.479996 C 60.160004 124.100006 58.960007 122.830002 57.160004 122.320007 C 56.76355 122.206238 56.477615 121.860733 56.440002 121.449997 C 56.139999 118.289993 52.589996 115.809998 48.360001 115.809998 C 46.567749 115.789398 44.804031 116.259735 43.259995 117.169998 C 43.00441 117.325684 42.69252 117.358704 42.410004 117.259995 C 42.124908 117.159332 41.900665 116.935089 41.800003 116.649994 C 41.119995 114.740005 38.800003 113.399994 36.119995 113.399994 C 33 113.399994 30.429993 115.199997 30.25 117.5 C 30.208206 118.020828 29.772491 118.421677 29.25 118.419998 Z"/>
    <path id="path29" fill="#dfeaef" stroke="none" d="M 45.070007 122.139999 C 44.57782 122.147156 44.153625 121.795074 44.070007 121.309998 C 43.818146 120.066818 43.10321 118.965805 42.070007 118.229996 C 40.739304 117.563171 39.184296 117.508408 37.809998 118.080002 C 37.282562 118.245682 36.720688 117.952438 36.554993 117.425003 C 36.389313 116.897568 36.682571 116.335678 37.210007 116.169998 C 39.008591 115.342239 41.092239 115.411133 42.832214 116.355927 C 44.572189 117.300705 45.764725 119.010727 46.050003 120.970001 C 46.096329 121.232727 46.035767 121.503067 45.881775 121.720917 C 45.727783 121.938751 45.493134 122.086029 45.229996 122.130005 Z"/>
    <path id="path30" fill="#dfeaef" stroke="none" d="M 171.559998 145.059998 L 151 145.059998 C 148.389999 145.059998 146.270004 143.309998 146.270004 141.169998 C 146.345184 139.608215 147.350479 138.244171 148.820007 137.710007 C 149.440002 135.070007 152.259995 133.149994 155.669998 133.149994 C 156.792389 133.147079 157.904053 133.368057 158.940002 133.800003 C 160.083618 132.333252 161.861267 131.503937 163.720001 131.570007 C 166.027161 131.443893 168.163116 132.786362 169.049988 134.919998 C 170.799133 135.06279 172.372986 136.037613 173.279999 137.539993 C 174.961792 137.970764 176.173706 139.43718 176.279999 141.169998 C 176.290009 143.309998 174.170013 145.059998 171.559998 145.059998 Z M 155.679993 135.149994 C 153.080002 135.149994 150.899994 136.639999 150.679993 138.550003 C 150.64238 138.960739 150.356445 139.306229 149.960007 139.419998 C 148.960007 139.710007 148.240005 140.419998 148.240005 141.169998 C 148.240005 142.169998 149.490005 143.059998 150.970001 143.059998 L 171.519989 143.059998 C 173 143.059998 174.25 142.190002 174.25 141.169998 C 174.25 140.350006 173.459991 139.610001 172.329987 139.360001 C 172.000885 139.287827 171.730225 139.054764 171.609985 138.740005 C 170.948853 137.50647 169.626282 136.77475 168.230011 136.869995 C 167.70752 136.871674 167.27179 136.470825 167.230011 135.949997 C 167.130005 134.630005 165.549988 133.570007 163.720001 133.570007 C 162.303009 133.464615 160.960327 134.216675 160.309998 135.479996 C 160.209351 135.765091 159.985107 135.989334 159.700012 136.089996 C 159.41452 136.191895 159.098206 136.158798 158.839996 136 C 157.885773 135.429352 156.791748 135.135071 155.679993 135.149994 Z"/>
    <path id="path31" fill="#dfeaef" stroke="none" d="M 162.480011 140.110001 C 161.950317 140.110947 161.51178 139.69873 161.480011 139.169998 C 161.350006 137.169998 158.980011 136.070007 158.959991 136.059998 C 158.454651 135.836319 158.226318 135.245346 158.450012 134.740005 C 158.673676 134.234665 159.264648 134.006317 159.769989 134.229996 C 159.910004 134.289993 163.26001 135.809998 163.470001 139.050003 C 163.504272 139.598969 163.088776 140.072571 162.540009 140.110001 Z"/>
    <path id="path32" fill="#dfeaef" stroke="none" d="M 156.839996 81.639999 L 127.570007 81.639999 C 124.089996 81.639999 121.259995 79.339996 121.259995 76.519989 C 121.386063 74.391205 122.808701 72.559265 124.839996 71.910004 C 125.589996 68.290009 129.559998 65.529999 134.229996 65.529999 C 135.887558 65.503571 137.530334 65.845108 139.039993 66.529999 C 140.557999 64.383896 143.052704 63.144058 145.679993 63.230011 C 149.229996 63.230011 152.229996 65.230011 152.949997 67.970001 C 155.471832 68.079285 157.76059 69.476715 159.01001 71.669998 C 161.299805 72.175385 162.981934 74.130417 163.140015 76.470001 C 163.140015 79.339996 160.320007 81.639999 156.839996 81.639999 Z M 134.229996 67.529999 C 130.300003 67.529999 127.009995 69.830002 126.729996 72.75 C 126.692383 73.160736 126.406448 73.506226 126.009995 73.619995 C 124.369995 74.089996 123.259995 75.26001 123.259995 76.519989 C 123.259995 78.23999 125.199997 79.639999 127.570007 79.639999 L 156.839996 79.639999 C 159.209991 79.639999 161.140015 78.23999 161.140015 76.519989 C 161.140015 75.160004 159.880005 73.940002 158.070007 73.519989 C 157.740875 73.44783 157.470215 73.214767 157.350006 72.899994 C 156.700012 71.169998 154.539993 69.959991 152.119995 69.959991 C 151.597504 69.96167 151.161804 69.560822 151.119995 69.040009 C 150.960007 66.919998 148.580002 65.26001 145.699997 65.26001 C 143.229996 65.26001 141.070007 66.48999 140.449997 68.26001 C 140.349335 68.54509 140.125092 68.769333 139.839996 68.869995 C 139.554504 68.971893 139.238205 68.938797 138.979996 68.779999 C 137.543182 67.930984 135.898605 67.498199 134.229996 67.529999 Z"/>
    <path id="path33" fill="#dfeaef" stroke="none" d="M 135.259995 73 C 135.021652 73.000015 134.791138 72.914917 134.610001 72.76001 C 134.408417 72.587616 134.283585 72.342224 134.262955 72.077789 C 134.242325 71.813354 134.327591 71.551559 134.5 71.350006 C 139.580002 65.429993 145.059998 69.480011 145.110001 69.529999 C 145.431396 69.730194 145.612152 70.094757 145.57695 70.471771 C 145.541748 70.848785 145.296616 71.173569 144.94371 71.310806 C 144.590805 71.448044 144.190659 71.374176 143.910004 71.119995 C 143.490005 70.809998 139.779999 68.26001 136.020004 72.649994 C 135.830002 72.872131 135.552307 73.000031 135.259995 73 Z"/>
</svg>
